<mxfile host="app.diagrams.net" modified="2022-05-11T08:07:24.366Z" agent="5.0 (Macintosh; Intel Mac OS X 10_14_6) AppleWebKit/537.36 (KHTML, like Gecko) Chrome/101.0.4951.54 Safari/537.36" etag="mqiwzHS34HUF4qU6owPZ" version="17.4.0" type="github">
  <diagram id="DiCTetR9Ja63XxoUkp0X" name="第 1 页">
    <mxGraphModel dx="1294" dy="730" grid="1" gridSize="10" guides="1" tooltips="1" connect="1" arrows="1" fold="1" page="1" pageScale="1" pageWidth="827" pageHeight="1169" math="0" shadow="0">
      <root>
        <mxCell id="0" />
        <mxCell id="1" parent="0" />
        <mxCell id="RKeHNfyaQAa8DjbZ_itg-1" value="" style="rounded=0;whiteSpace=wrap;html=1;fillColor=#59FF59;" vertex="1" parent="1">
          <mxGeometry x="120" y="20" width="560" height="60" as="geometry" />
        </mxCell>
        <mxCell id="RKeHNfyaQAa8DjbZ_itg-2" value="HTML" style="rounded=1;whiteSpace=wrap;html=1;fillColor=#FFFFFF;" vertex="1" parent="1">
          <mxGeometry x="160" y="25" width="90" height="50" as="geometry" />
        </mxCell>
        <mxCell id="RKeHNfyaQAa8DjbZ_itg-3" value="CSS" style="rounded=1;whiteSpace=wrap;html=1;fillColor=#FFFFFF;" vertex="1" parent="1">
          <mxGeometry x="280" y="25" width="90" height="50" as="geometry" />
        </mxCell>
        <mxCell id="RKeHNfyaQAa8DjbZ_itg-4" value="JS" style="rounded=1;whiteSpace=wrap;html=1;fillColor=#FFFFFF;" vertex="1" parent="1">
          <mxGeometry x="400" y="25" width="90" height="50" as="geometry" />
        </mxCell>
        <mxCell id="RKeHNfyaQAa8DjbZ_itg-5" value="图片" style="rounded=1;whiteSpace=wrap;html=1;fillColor=#FFFFFF;" vertex="1" parent="1">
          <mxGeometry x="520" y="25" width="90" height="50" as="geometry" />
        </mxCell>
        <mxCell id="RKeHNfyaQAa8DjbZ_itg-6" value="前端UI" style="text;html=1;strokeColor=none;fillColor=none;align=center;verticalAlign=middle;whiteSpace=wrap;rounded=0;" vertex="1" parent="1">
          <mxGeometry x="40" y="35" width="60" height="30" as="geometry" />
        </mxCell>
        <mxCell id="RKeHNfyaQAa8DjbZ_itg-7" value="" style="endArrow=none;dashed=1;html=1;rounded=0;strokeWidth=4;startArrow=none;" edge="1" parent="1" source="RKeHNfyaQAa8DjbZ_itg-10">
          <mxGeometry width="50" height="50" relative="1" as="geometry">
            <mxPoint x="40" y="120" as="sourcePoint" />
            <mxPoint x="720" y="120" as="targetPoint" />
          </mxGeometry>
        </mxCell>
        <mxCell id="RKeHNfyaQAa8DjbZ_itg-9" value="" style="shape=singleArrow;direction=south;whiteSpace=wrap;html=1;fillColor=#99FFE7;" vertex="1" parent="1">
          <mxGeometry x="200" y="90" width="20" height="60" as="geometry" />
        </mxCell>
        <mxCell id="RKeHNfyaQAa8DjbZ_itg-11" value="" style="shape=singleArrow;direction=south;whiteSpace=wrap;html=1;fillColor=#99FFE7;" vertex="1" parent="1">
          <mxGeometry x="380" y="90" width="20" height="60" as="geometry" />
        </mxCell>
        <mxCell id="RKeHNfyaQAa8DjbZ_itg-10" value="" style="shape=singleArrow;direction=south;whiteSpace=wrap;html=1;fillColor=#99FFE7;" vertex="1" parent="1">
          <mxGeometry x="555" y="90" width="20" height="60" as="geometry" />
        </mxCell>
        <mxCell id="RKeHNfyaQAa8DjbZ_itg-12" value="" style="endArrow=none;dashed=1;html=1;rounded=0;strokeWidth=4;strokeColor=#4F4FFF;" edge="1" parent="1" target="RKeHNfyaQAa8DjbZ_itg-10">
          <mxGeometry width="50" height="50" relative="1" as="geometry">
            <mxPoint x="40" y="120" as="sourcePoint" />
            <mxPoint x="720" y="120" as="targetPoint" />
          </mxGeometry>
        </mxCell>
      </root>
    </mxGraphModel>
  </diagram>
</mxfile>
